<?xml version="1.0" standalone="no"?>
<!DOCTYPE svg PUBLIC "-//W3C//DTD SVG 20010904//EN"
 "http://www.w3.org/TR/2001/REC-SVG-20010904/DTD/svg10.dtd">
<svg version="1.0" xmlns="http://www.w3.org/2000/svg"
 width="546.000000pt" height="269.000000pt" viewBox="0 0 546.000000 269.000000"
 preserveAspectRatio="xMidYMid meet">

<g transform="translate(0.000000,269.000000) scale(0.100000,-0.100000)"
fill="#000000" stroke="none">
<path d="M3711 2415 c-424 -81 -856 -278 -1125 -512 -97 -85 -103 -96 -78
-128 l19 -24 54 55 c68 70 218 184 332 253 333 201 786 333 1092 318 316 -16
578 -151 785 -403 48 -58 115 -175 150 -263 59 -145 84 -352 61 -512 -24 -162
-102 -354 -194 -474 -56 -73 -191 -200 -267 -250 -280 -183 -577 -218 -980
-117 -192 49 -316 95 -490 181 -233 116 -426 257 -543 396 -49 59 -63 69 -86
67 -47 -6 -46 -19 4 -77 199 -233 511 -430 875 -553 436 -147 730 -167 1015
-69 367 126 647 455 721 844 24 127 15 343 -19 474 -76 293 -290 561 -555 694
-244 123 -484 154 -771 100z"/>
<path d="M4125 2087 c263 -94 462 -293 562 -561 l34 -91 -4 65 c-14 211 -170
440 -367 538 -90 44 -220 82 -279 81 -31 0 -23 -5 54 -32z"/>
<path d="M332 1728 c-9 -9 -12 -93 -12 -314 0 -327 1 -334 54 -334 47 0 56 26
56 163 l0 127 175 0 175 0 0 -129 c0 -104 3 -133 16 -145 23 -24 61 -20 79 8
23 35 18 612 -5 626 -22 14 -66 12 -78 -3 -7 -8 -13 -67 -14 -138 l-3 -124
-172 -3 -173 -2 0 120 c0 67 -5 130 -10 141 -12 22 -68 27 -88 7z"/>
<path d="M2356 1718 c-14 -19 -16 -66 -16 -308 0 -310 3 -330 55 -330 48 0 55
21 55 158 0 174 26 222 120 222 75 -1 89 -39 90 -232 0 -115 2 -128 19 -138
32 -17 60 -11 77 15 14 21 16 48 12 178 -5 164 -13 196 -63 235 -54 43 -163
35 -216 -14 -14 -13 -28 -21 -32 -17 -4 3 -7 56 -7 118 0 73 -4 115 -12 123
-20 20 -65 14 -82 -10z"/>
<path d="M1586 1664 c-11 -10 -16 -34 -16 -70 l0 -54 -33 0 c-44 0 -70 -20
-65 -51 2 -20 10 -25 48 -29 l45 -5 5 -140 c6 -157 18 -189 82 -216 49 -20
138 -18 152 4 16 26 -4 51 -47 57 -71 10 -77 23 -77 169 l0 130 63 3 c57 3 62
5 65 27 5 34 -22 51 -80 51 l-48 0 0 54 c0 45 -4 58 -22 70 -29 20 -52 20 -72
0z"/>
<path d="M2948 1669 c-14 -8 -18 -23 -18 -69 l0 -60 -33 0 c-44 0 -70 -20 -65
-51 2 -20 10 -25 48 -29 l45 -5 5 -142 c5 -156 15 -182 76 -212 39 -20 116
-26 143 -12 43 24 19 71 -36 71 -20 0 -41 8 -53 20 -18 18 -20 33 -20 150 l0
130 54 0 c59 0 82 16 71 48 -6 22 -33 32 -86 32 l-37 0 -4 56 c-6 74 -41 102
-90 73z"/>
<path d="M1143 1540 c-81 -17 -126 -52 -116 -91 8 -28 27 -29 85 -7 76 29 145
28 169 -1 11 -13 19 -38 19 -57 0 -34 0 -34 -47 -34 -83 0 -172 -21 -203 -47
-82 -69 -23 -207 94 -220 58 -7 87 1 125 33 l31 26 10 -26 c13 -34 54 -44 81
-20 19 18 20 28 17 179 -3 178 -14 212 -74 247 -37 21 -133 30 -191 18z m157
-286 c0 -26 -8 -43 -29 -65 -55 -54 -151 -35 -151 30 0 51 32 70 118 71 l62 0
0 -36z"/>
<path d="M2011 1535 c-88 -27 -150 -116 -151 -214 0 -155 94 -249 242 -239
102 7 168 50 153 98 -8 26 -40 26 -90 0 -46 -24 -74 -25 -120 -6 -42 18 -63
50 -71 107 -14 101 39 179 119 179 23 0 62 -9 86 -21 50 -22 66 -20 74 10 8
32 -28 69 -85 86 -62 18 -99 18 -157 0z"/>
<path d="M3269 1536 c-24 -12 -24 -12 -27 -215 -2 -179 0 -206 14 -222 21 -23
57 -24 78 -3 13 12 16 40 16 135 0 81 5 131 14 154 15 36 59 65 100 65 46 0
76 21 76 51 0 40 -28 52 -83 38 -44 -11 -96 -49 -98 -72 0 -7 -6 5 -12 27 -14
45 -42 60 -78 42z"/>
<path d="M3703 1536 c-69 -17 -103 -41 -103 -70 0 -41 21 -48 81 -25 30 12 76
22 102 22 56 1 81 -19 91 -74 l6 -36 -87 -6 c-113 -9 -157 -22 -182 -53 -89
-113 52 -259 194 -200 19 8 40 24 47 35 17 28 24 26 31 -9 8 -38 48 -51 78
-24 19 18 20 28 17 179 -3 139 -6 165 -23 195 -39 66 -143 94 -252 66z m172
-278 c-14 -72 -47 -102 -110 -102 -42 0 -75 28 -75 63 0 52 32 70 123 71 l69
0 -7 -32z"/>
</g>
</svg>
